<svg width="0" height="0" class="hidden">
  <symbol xmlns="http://www.w3.org/2000/svg" viewBox="0 0 40 40" id="msn">
    <path d="M20.3 0C9.5 0 .7 8.8.7 19.7c0 3.4.9 6.8 2.6 9.8L0 39.1c-.1.2 0 .5.1.7.2.1.4.2.6.2h.2l10.6-2.8c2.8 1.4 5.8 2.1 8.9 2.1 10.8 0 19.7-8.8 19.7-19.7C40 8.8 31.2 0 20.3 0" fill="#3dd3a1"></path>
    <path d="M13.6 19.7c0 1.4-1.2 2.6-2.6 2.6-1.4 0-2.6-1.2-2.6-2.6 0-1.4 1.2-2.6 2.6-2.6 1.4-.1 2.6 1.1 2.6 2.6m9.3 0c0 1.4-1.2 2.6-2.6 2.6-1.4 0-2.6-1.2-2.6-2.6 0-1.4 1.2-2.6 2.6-2.6 1.5-.1 2.6 1.1 2.6 2.6m9.4 0c0 1.4-1.2 2.6-2.6 2.6-1.4 0-2.6-1.2-2.6-2.6 0-1.4 1.2-2.6 2.6-2.6 1.5-.1 2.6 1.1 2.6 2.6"></path>
  </symbol>
  <symbol xmlns="http://www.w3.org/2000/svg" viewBox="0 0 512 512" id="skype">
    <title>facebook</title>
    <path d="M212.8 18.7c-.8-.5-1.7-.9-2.5-1.3-.9.2-1.7.3-2.6.5l5.1.8zM18.4 210.5c-.2.9-.3 1.8-.4 2.6.5.8.8 1.6 1.3 2.4l-.9-5zm475 90.8c.2-.9.3-1.8.5-2.7-.5-.8-.8-1.6-1.3-2.4l.8 5.1zM296 491.5c.8.5 1.7.9 2.5 1.3.9-.2 1.8-.3 2.7-.4l-5.2-.9z"></path>
    <path d="M493.9 298.6c-.2.9-.3 1.8-.5 2.7l-.9-5.2c.5.9.9 1.7 1.4 2.5 2.6-14.4 4-29.1 4-43.8 0-32.6-6.4-64.3-19-94.1-12.2-28.8-29.6-54.7-51.8-76.9S379 44.2 350.3 32c-29.8-12.6-61.5-19-94.1-19-15.4 0-30.8 1.4-45.8 4.3h-.1c.8.4 1.7.8 2.5 1.3l-5.1-.8c.9-.2 1.7-.3 2.6-.5C189.7 6.4 166.6.5 143.2.5 105 .5 69 15.4 42 42.4S.1 105.4.1 143.6c0 24.3 6.3 48.3 18 69.4.2-.9.3-1.8.4-2.6l.9 5.1c-.5-.8-.9-1.6-1.3-2.4-2.4 13.7-3.6 27.7-3.6 41.7 0 32.6 6.4 64.3 19 94.1 12.2 28.8 29.6 54.6 51.8 76.8s48.1 39.6 76.9 51.8c29.8 12.6 61.5 19 94.1 19 14.2 0 28.4-1.3 42.3-3.8-.8-.5-1.6-.9-2.5-1.3l5.2.9c-.9.2-1.8.3-2.7.4 21.4 12.1 45.7 18.6 70.4 18.6 38.2 0 74.2-14.9 101.2-41.9s41.9-63 41.9-101.2c-.1-24.3-6.4-48.3-18.2-69.6zM257.1 402.9c-85.9 0-124.3-42.2-124.3-73.9 0-16.2 12-27.6 28.5-27.6 36.8 0 27.2 52.8 95.8 52.8 35.1 0 54.5-19.1 54.5-38.6 0-11.7-5.8-24.7-28.9-30.4l-76.4-19.1c-61.5-15.4-72.7-48.7-72.7-80 0-64.9 61.1-89.3 118.5-89.3 52.9 0 115.2 29.2 115.2 68.2 0 16.7-14.5 26.4-31 26.4-31.4 0-25.6-43.4-88.8-43.4-31.4 0-48.7 14.2-48.7 34.5s24.8 26.8 46.3 31.7l56.6 12.6c61.9 13.8 77.6 50 77.6 84 0 52.7-40.5 92.1-122.2 92.1z"></path>
  </symbol>
  <symbol xmlns="http://www.w3.org/2000/svg" viewBox="0 0 40 40" id="sn">
    <path d="M20 0C9 0 0 9 0 20s9 20 20 20 20-9 20-20S31 0 20 0zm-2.2 20c0 .4-.1.8-.2 1.2l5.6 2.7c.6-.7 1.6-1.1 2.6-1.1 1.9 0 3.5 1.6 3.5 3.5s-1.6 3.5-3.5 3.5-3.5-1.6-3.5-3.5v-.5l-5.9-2.9c-.6.4-1.3.7-2.1.7-1.9 0-3.5-1.6-3.5-3.5s1.6-3.5 3.5-3.5c.8 0 1.5.3 2.1.7l5.9-2.9v-.5c0-1.9 1.6-3.5 3.5-3.5s3.5 1.6 3.5 3.5-1.6 3.5-3.5 3.5c-1 0-1.9-.4-2.6-1.1L17.6 19c.1.2.2.6.2 1z"
      fill="#3b4269"></path>
  </symbol>
  <symbol xmlns="http://www.w3.org/2000/svg" viewBox="0 0 74 74" id="step_01">
    <circle cx="37" cy="37" r="37" fill="#2cd3b8"></circle>
    <path d="M41.8 37.5c3.5 0 6.4-2.8 6.4-6.3 0-3.4-2.9-6.2-6.4-6.2s-6.4 2.8-6.4 6.2c0 3.5 2.9 6.3 6.4 6.3zm-14.3-3.1v-4.7h-3.2v4.7h-4.8v3.1h4.8v4.7h3.2v-4.7h4.8v-3.1h-4.8zm14.3 6.2c-4.3 0-12.7 2-12.7 6.2V50h25.5v-3.1c-.1-4.2-8.5-6.3-12.8-6.3z"
      fill="#fff"></path>
  </symbol>
  <symbol xmlns="http://www.w3.org/2000/svg" viewBox="0 0 74 74" id="step_02">
    <circle cx="37" cy="37" r="37" fill="#2cd3b8"></circle>
    <path d="M47.1 25.5L32.6 39.8 27 34.3l-4.4 4.4 10.1 9.9L51.6 30l-4.5-4.5z" fill="#fff"></path>
  </symbol>
  <symbol xmlns="http://www.w3.org/2000/svg" viewBox="0 0 74 74" id="step_03">
    <circle cx="37" cy="37" r="37" fill="#2cd3b8"></circle>
    <path d="M54.9 35c-.1-.5-.6-.9-1.2-.9-1.6 0-3.1-1-3.7-2.5-.6-1.5-.2-3.3 1-4.5.4-.4.4-.9.1-1.4-.8-1.1-1.8-2-2.9-2.9-.4-.3-1-.3-1.4.1-1.1 1.2-3 1.6-4.5 1-1.5-.7-2.5-2.2-2.4-3.9 0-.5-.4-1-.9-1.1-1.3-.2-2.7-.2-4 0-.5.1-.9.5-.9 1 .1 1.7-.9 3.2-2.5 3.8-1.5.6-3.4.2-4.5-1-.4-.4-.9-.4-1.4-.1-1.1.8-2.1 1.8-2.9 2.9-.3.4-.3 1 .1 1.4 1.3 1.1 1.7 2.9 1 4.5-.6 1.5-2.2 2.4-3.9 2.4-.6 0-1 .4-1 .9-.2 1.4-.2 2.7 0 4.1.1.5.7.9 1.2.9 1.6 0 3.1.9 3.7 2.5.6 1.5.2 3.3-1 4.5-.4.4-.4.9-.1 1.4.8 1.1 1.8 2 2.8 2.9.4.3 1 .3 1.4-.1 1.1-1.2 3-1.6 4.5-1 1.6.6 2.5 2.2 2.4 3.9 0 .5.4 1 .9 1.1.8.1 1.5.1 2.2.1.7 0 1.3 0 2-.1.5-.1.9-.5.9-1-.1-1.7.9-3.2 2.5-3.8 1.5-.6 3.4-.2 4.5 1 .4.4.9.4 1.4.1 1.1-.8 2.1-1.8 2.9-2.9.3-.4.3-1-.1-1.4-1.3-1.1-1.7-2.9-1-4.5.4-1.4 1.9-2.4 3.5-2.4h.2c.5 0 1-.4 1.1-.9.1-1.4.1-2.7 0-4.1zM37 47.4c-5.7 0-10.4-4.6-10.4-10.4S31.3 26.6 37 26.6 47.4 31.3 47.4 37c0 1.9-.5 3.8-1.5 5.3l-4.5-4.5c.3-.8.5-1.6.5-2.5 0-1.7-.7-3.3-1.9-4.5-1.2-1.2-2.8-1.9-4.5-1.9-.6 0-1.1.1-1.7.2-.2.1-.4.3-.5.5-.1.2 0 .5.2.7 0 0 2.2 2.3 3 3 .1.1.1.3.1.3-.1.8-.2 1.8-.3 2.2v.1c-.4.1-1.4.3-2.2.3-.1 0-.2 0-.3-.1l-2.9-2.9c-.2-.2-.4-.2-.5-.2-.3 0-.6.2-.7.5-.6 2.2 0 4.6 1.6 6.2 1.2 1.2 2.8 1.9 4.5 1.9.9 0 1.7-.2 2.5-.5l4.6 4.6c-1.9 1.1-3.8 1.7-5.9 1.7z"
      fill="#fff"></path>
  </symbol>
  <symbol xmlns="http://www.w3.org/2000/svg" viewBox="0 0 74 74" id="step_04">
    <circle cx="37" cy="37" r="37" fill="#2cd3b8"></circle>
    <path d="M57 26.3l-.3 2.5c-.1.8-.2 1.6-.4 2.4l-.1.5c-.4 2.3-.7 4.2-1.1 5.9-.4 1.9-.9 4-1.5 6.1-.4 1.2-.7 2.2-1.1 3.1-.2.6-.5 1.1-.7 1.6-.3.5-.6 1-1.1 1.6-.2.3-.5.5-.8.7-.2.2-.6.3-1.1.4-.4.1-.8 0-1.1-.1-.3-.1-.6-.3-.9-.5-.6-.5-1-1-1.3-1.4-.4-.5-.7-1.1-.9-1.5-.6-1.1-1-2.2-1.4-3-.4-1-.8-2.1-1.2-3l-.6-1.8c-.5-1.4-1-2.8-1.5-4.1-.4-1.1-.8-1.9-1.2-2.6 0-.1-.1-.2-.2-.3 0 0 0-.1-.1-.1 0 0 0-.1-.1-.1-.9-1.3-2-1.2-2.8.9-.2.4-.3.8-.5 1.3l-.5 1.2c-.4 1.1-.7 2.1-1.1 3-.5 1.2-.9 2-1.4 2.8-.5.7-1.1 1.7-2 2.4-.5.4-.9.6-1.4.8-.5.2-1 .2-1.6.1-.5-.1-.9-.3-1.4-.5-.4-.2-.8-.5-1.1-.9-.6-.6-1.2-1.3-1.7-2.2-.5-.7-.9-1.5-1.3-2.3-.8-1.7-1.5-3.4-1.9-4.6-1.1-3.1-1.9-5.9-2.4-8 0-.1 0-.2-.1-.2 0-.1 0-.2.1-.3.1-.1.2-.1.3-.1h.1c.1 0 .2.1.2.3.8 2.1 1.6 4.5 3 7.4.7 1.5 1.4 2.9 2.2 4.2.4.7.9 1.4 1.3 2 .6.7 1 1.2 1.5 1.6.6.5 1.1.7 1.6.8.5 0 .9-.2 1.4-.6.5-.5 1-1.2 1.3-1.8.4-.7.7-1.5 1.1-2.4.3-.8.6-1.7.9-2.7l.5-1.5.6-1.5c.2-.6.5-1.1.7-1.6.2-.5.6-1 1-1.5.2-.3.5-.5.8-.7.3-.3.7-.4 1.1-.5.4-.1.8-.1 1.2 0 .3.1.7.3 1 .5.6.5 1 1 1.3 1.4.3.4.6.9.9 1.5.6 1.1 1 2.1 1.4 3 .1.1.1.3.2.4.6 1.4 1.1 2.8 1.6 4.2l.5 1.3c.7 1.8 1.4 3.8 2.3 5.5.2.5.5.8.6 1.1 1.1 1.7 1.8.2 2-.2.2-.3.4-.7.6-1.2.3-.8.7-1.6 1-2.7.6-1.7 1.1-3.7 1.6-5.7.5-1.9.9-3.8 1.3-5.7l.1-.4c.2-.8.4-1.6.5-2.4l.5-2.3v-.2c.1-.4.5-.7.9-.7.5 0 .9.4.9.9l-.2.5z"
      fill-rule="evenodd" clip-rule="evenodd" fill="#fff"></path>
  </symbol>
  <symbol xmlns="http://www.w3.org/2000/svg" viewBox="0 0 74 74" id="step_05">
    <circle cx="37" cy="37" r="37" fill="#2cd3b8"></circle>
    <path d="M51.5 34h-.6v9.4h.6c.9 0 1.6-.7 1.6-1.6v-6.3c-.1-.8-.8-1.5-1.6-1.5zM21 35.6v6.1c0 .9.7 1.7 1.6 1.7h.6V34h-.6c-.9 0-1.6.7-1.6 1.6zm28.4-.3c0-.7-.1-1.4-.2-2.1 0-.2-.1-.5-.2-.7v-1.8c0-6.8-5.4-12.3-12-12.3S25 24 25 30.8V32c-.1.2-.1.3-.2.5-.2.9-.4 1.9-.4 2.8v11.6c0 .5.4.8.8.8h2.5c.8 4.4 4.7 7.8 9.3 7.8 3.6 0 6.8-2.1 8.4-5.2 2.7-.2 4.9-2.5 4.9-5.3h-.9v-9.7zm-5.5 12.6H38c-.7 0-1.2.6-1.2 1.2 0 .7.5 1.2 1.2 1.2h4.6C41.3 52 39.3 53 37.1 53c-3.9 0-7-3.2-7-7.2V38c.9-.6 2.5-1.7 3.6-3.2 1.7 1.4 5.1 3.5 10.5 3.7v7.3l-.3 2.1zm-5.1-23.5h-3.6c-2.7 0-5.2 1-7 2.7C29.5 23.5 33 21 37 21c4.1 0 7.7 2.7 9 6.4-1.8-1.8-4.4-3-7.2-3zm-4.2 15.9h-1.9c-.7 0-1.2.6-1.2 1.2 0 .7.5 1.2 1.2 1.2h1.9c.7 0 1.2-.6 1.2-1.2s-.6-1.2-1.2-1.2zm6.8 0h-1.9c-.7 0-1.2.6-1.2 1.2 0 .7.5 1.2 1.2 1.2h1.9c.7 0 1.2-.6 1.2-1.2s-.6-1.2-1.2-1.2z"
      fill="#fff"></path>
  </symbol>
  <symbol xmlns="http://www.w3.org/2000/svg" viewBox="0 0 74 74" id="step_06">
    <circle cx="37" cy="37" r="37" fill="#2cd3b8"></circle>
    <path d="M41.6 49h-3.4v-3h-2.4v3h-3.4c-.7 0-1.2.6-1.2 1.2 0 .7.5 1.2 1.2 1.2h9.2c.7 0 1.2-.6 1.2-1.2s-.5-1.2-1.2-1.2zM21 42v1.5c0 .5.4 1 1 1h30c.5 0 1-.4 1-1V42H21zm16-15.3c2.6 0 5 .7 7.1 2l.8-1.1c.3-.4.8-.4 1.1-.2.4.3.4.8.2 1.1l-.8 1.1c3.2 2.5 5.2 6.3 5.3 10.7H53V23.5c0-.5-.4-1-1-1H22c-.5 0-1 .4-1 1v16.9h2.3c.1-7.6 6.2-13.7 13.7-13.7zm7 13.1c-.1-.1-.1-.2-.1-.3-.3-1.8-1.2-3.3-2.5-4.3L39 38.5c.4.3.7.8.9 1.3H44zm-7-2h.5l2.6-3.5c-.9-.5-2-.7-3.1-.7-2 0-3.8.8-5.1 2.2 0 .1-.1.1-.1.2-.8 1-1.4 2.2-1.6 3.5 0 .1-.1.2-.1.3h4.1c.3-1.2 1.5-2 2.8-2zm12.1 2c-.2-3.6-2-6.7-4.6-8.8l-2.1 2.9.2.2c1.5 1.3 2.6 3.2 2.9 5.2 0 .2 0 .4-.1.6h3.7zm-21.9-6.4c-1.3 1.8-2.2 4-2.3 6.4h3.7c-.1-.2-.2-.4-.1-.6.2-1.3.8-2.6 1.6-3.7l-2.9-2.1zm4.2.6c1.4-1.2 3-1.9 4.8-2v-3.6c-3.1.2-5.9 1.6-7.9 3.7l2.9 2.1.2-.2zm11.7-3.9c-1.6-.9-3.4-1.5-5.3-1.6V32c1.1.1 2.2.4 3.2 1l2.1-2.9z"
      fill="#fff"></path>
  </symbol>
  <symbol xmlns="http://www.w3.org/2000/svg" viewBox="0 0 512 512" id="twitter">
    <title>facebook</title>
    <path d="M512 113.2c-18.8 8.4-39.1 14-60.3 16.5 21.7-13 38.3-33.6 46.2-58.1-20.3 12-42.8 20.8-66.7 25.5C412 76.7 384.7 64 354.5 64c-58 0-105 47-105 105 0 8.2.9 16.2 2.7 23.9-87.3-4.4-164.7-46.2-216.5-109.8-9 15.5-14.2 33.6-14.2 52.8 0 36.4 18.5 68.6 46.7 87.4-17.2-.5-33.4-5.3-47.6-13.1v1.3c0 50.9 36.2 93.4 84.3 103-8.8 2.4-18.1 3.7-27.7 3.7-6.8 0-13.3-.7-19.8-1.9 13.4 41.7 52.2 72.1 98.1 73-36 28.2-81.2 45-130.5 45-8.5 0-16.8-.5-25.1-1.5C46.5 462.7 101.7 480 161 480c193.2 0 298.9-160.1 298.9-298.9 0-4.6-.1-9.1-.3-13.6 20.5-14.7 38.3-33.2 52.4-54.3z"></path>
  </symbol>
  <symbol xmlns="http://www.w3.org/2000/svg" viewBox="0 0 490 448" id="vk">
    <title>facebook</title>
    <path d="M479.25 130c3.75 10.25-8 34.25-37.5 73.5C393.25 268 388 262 428 299.25c38.5 35.75 46.5 53 47.75 55.25 0 0 16 28-17.75 28.25l-64 1c-13.75 2.75-32-9.75-32-9.75-24-16.5-46.5-59.25-64-53.75 0 0-18 5.75-17.5 44.25.25 8.25-3.75 12.75-3.75 12.75s-4.5 4.75-13.25 5.5h-28.75c-63.25 4-119-54.25-119-54.25s-61-63-114.5-188.75c-3.5-8.25.25-12.25.25-12.25s3.75-4.75 14.25-4.75l68.5-.5c6.5 1 11 4.5 11 4.5s4 2.75 6 8c11.25 28 25.75 53.5 25.75 53.5 25 51.5 42 60.25 51.75 55 0 0 12.75-7.75 10-70-1-22.5-7.25-32.75-7.25-32.75-5.75-7.75-16.5-10-21.25-10.75-3.75-.5 2.5-9.5 10.75-13.5 12.25-6 34-6.25 59.75-6 20.25.25 26 1.5 33.75 3.25 23.75 5.75 15.75 27.75 15.75 80.75 0 17-3.25 40.75 9 48.5 5.25 3.5 18.25.5 50.25-54 0 0 15-26 26.75-56.25 2-5.5 6.25-7.75 6.25-7.75s4-2.25 9.5-1.5l72-.5c21.75-2.75 25.25 7.25 25.25 7.25z"></path>
  </symbol>
  <symbol xmlns="http://www.w3.org/2000/svg" xmlns:xlink="http://www.w3.org/1999/xlink" viewBox="0 0 40 40" id="yad">
    <path id="a" d="M9.3 30.2c-3-1.8-3.5-2.6-3.5-6.1V17c0-.5.1-.7.3-1.1.3-.6 1-.9 1.6-.9.3 0 .6.1.9.2l5.7 3.3c1.7 1 2.9 3.1 3.1 5.4V34c0 .3-.2.5-.5.5-.1 0-.2 0-.2-.1l-7.4-4.2zm24.8-15c0 .1.1.2.1.2v8.7c-.1 3.7-.6 4.4-4.1 6.4l-5.8 3.4c-.4.2-.7.3-1.1.3-.7 0-1.3-.4-1.6-.9-.2-.3-.3-.6-.3-.9v-6.7c0-2 1.3-4.2 3.2-5.5l8.9-5.1c.3-.2.6-.2.7.1m-16.3.9l-9-5.1c-.2-.1-.3-.4-.2-.7 0-.1.1-.1.2-.2l7.6-4.4C19.7 4 20.6 4 24.1 6l5.8 3.3c.4.2.6.4.8.8.3.6.3 1.3 0 1.9-.2.3-.4.5-.7.7l-5.8 3.4c-.9.5-1.9.8-3.1.8-1.1 0-2.2-.3-3.3-.8M20 0c-1.3 0-2.6.3-3.7 1L5.6 7.3C3.4 8.6 2 11 2 13.6v12.8c0 2.6 1.4 5 3.6 6.3L16.3 39c1.1.7 2.4 1 3.7 1 1.3 0 2.6-.3 3.7-1l10.7-6.3c2.2-1.3 3.6-3.7 3.6-6.3V13.6c0-2.6-1.4-5-3.6-6.3L23.7 1C22.6.3 21.3 0 20 0z"></path>
    <clipPath id="b">
      <use xlink:href="#a" overflow="visible"></use>
    </clipPath>
    <linearGradient id="c" gradientUnits="userSpaceOnUse" x1="-87.086" y1="140" x2="-86.919" y2="140" gradientTransform="matrix(219.5379 -11.5055 10.3552 243.9254 17670.57 -35130.559)">
      <stop offset="0" stop-color="#6f00f9"></stop>
      <stop offset="1" stop-color="#69bac0"></stop>
    </linearGradient>
    <path clip-path="url(#b)" fill="url(#c)" d="M2.1 41.9l37.6-2-1.8-41.8L.3.1z"></path>
  </symbol>
  <symbol xmlns="http://www.w3.org/2000/svg" viewBox="0 0 485.213 485.212" id="phone">
    <path d="M242.607 0C108.629 0 .001 108.628.001 242.606c0 133.976 108.628 242.606 242.606 242.606s242.604-108.631 242.604-242.606C485.212 108.628 376.585 0 242.607 0zm128.112 353.989l-19.425 19.429c-3.468 3.463-13.623 5.624-13.949 5.624-61.452.536-120.621-23.602-164.095-67.08-43.593-43.618-67.759-102.998-67.11-164.657 0-.028 2.224-9.892 5.689-13.324l19.424-19.427c7.108-7.141 20.762-10.368 30.327-7.168l4.086 1.363c9.537 3.197 19.55 13.742 22.185 23.457l9.771 35.862c2.635 9.743-.919 23.604-8.025 30.712l-12.97 12.972c12.734 47.142 49.723 84.138 96.873 96.903l12.965-12.975c7.141-7.141 20.997-10.692 30.719-8.061l35.857 9.806c9.717 2.67 20.26 12.62 23.456 22.154l1.363 4.145c3.168 9.538-.034 23.189-7.141 30.265z"></path>
  </symbol>
  <symbol xmlns="http://www.w3.org/2000/svg" viewBox="0 0 612.069 612.069" id="message">
    <path d="M540.947 57.384H71.053C31.861 57.384 0 89.176 0 128.436v281.95c0 39.192 31.792 71.053 71.053 71.053h49.607l43.646 58.446c2.946 3.7 12.607 14.8 27.407 14.8 6.646 0 16.992-2.946 26.653-15.554l43.646-57.692h279.004c39.192 0 71.053-31.792 71.053-71.053V129.122c-.137-39.193-31.93-71.738-71.122-71.738zm43.646 353.688c0 24.392-20.007 43.646-43.646 43.646H254.543c-4.454 0-8.154 2.193-11.1 5.207l-47.346 63.653c-2.946 3.7-4.454 4.454-4.454 4.454-.754 0-3.7-2.193-5.207-4.454l-47.346-63.653c-2.193-3.7-6.646-5.207-11.1-5.207H71.738c-24.392 0-43.646-20.007-43.646-43.646v-281.95c0-24.392 20.007-43.646 43.646-43.646h469.894c24.392 0 43.646 20.007 43.646 43.646v281.95h-.685zM498.74 272.666c0 7.4-5.892 13.292-13.292 13.292H125.045c-7.4 0-13.292-5.892-13.292-13.292 0-7.4 5.893-13.292 13.292-13.292h360.403c7.4-.754 13.292 5.207 13.292 13.292zm0 82.153c0 7.4-5.892 13.292-13.292 13.292H125.045c-7.4 0-13.292-5.893-13.292-13.292s5.893-13.292 13.292-13.292h360.403c7.4-.754 13.292 5.138 13.292 13.292zM110.999 191.267c0-7.4 5.893-13.292 13.292-13.292h216.79c7.4 0 13.292 5.893 13.292 13.292s-5.893 13.292-13.292 13.292H125.045c-7.4.823-14.046-5.892-14.046-13.292z"></path>
  </symbol>
  <symbol xmlns="http://www.w3.org/2000/svg" viewBox="0 0 50 50" id="01">
    <path d="M48.2 10c-1.1-1.1-2.7-1.8-4.3-1.8-1.6 0-3.1.6-4.3 1.8L36 13.6V1.7C36 1 35.4.4 34.7.4H12.1c-.4 0-.7.1-1 .4L.4 11.5c-.3.3-.4.6-.4 1v36.2c0 .7.6 1.3 1.4 1.3h33.3c.7 0 1.3-.6 1.3-1.3v-18l12.2-12.2c1.1-1.1 1.8-2.7 1.8-4.3 0-1.5-.6-3.1-1.8-4.2M23.3 38.3l-4.5 1.2L20 35l3.3 3.3zm2.6-1.2l-4.8-4.8 17.1-17.1L43 20 25.9 37.1zM10.8 5v6.2H4.6L10.8 5zm22.5 42.3H2.7V13.8h9.4c.7 0 1.3-.6 1.3-1.3V3.1h19.9v13.2l-15 15.1c-.2.2-.3.4-.4.6l-2.4 9c-.1.5 0 1 .4 1.3.3.3.6.4 1 .4h.3l9-2.4c.2-.1.5-.2.6-.4l6.5-6.5v13.9zm13-30.6l-1.4 1.4-4.8-4.8 1.4-1.4c.6-.6 1.5-1 2.4-1 .9 0 1.7.3 2.4 1 .6.6 1 1.5 1 2.4 0 .9-.3 1.7-1 2.4"></path>
    <path d="M11.4 40.1H7.5c-.7 0-1.3.6-1.3 1.3 0 .7.6 1.3 1.3 1.3h3.9c.7 0 1.3-.6 1.3-1.3.1-.7-.5-1.3-1.3-1.3m.7-5.4H7.5c-.7 0-1.3.6-1.3 1.3 0 .7.6 1.3 1.3 1.3h4.6c.7 0 1.3-.6 1.3-1.3.1-.7-.5-1.3-1.3-1.3m1.4-5.4h-6c-.7 0-1.3.6-1.3 1.3 0 .7.6 1.3 1.3 1.3h5.9c.7 0 1.3-.6 1.3-1.3.1-.7-.5-1.3-1.2-1.3m-6-2.7h9.8c.7 0 1.3-.6 1.3-1.3 0-.7-.6-1.3-1.3-1.3H7.5c-.7 0-1.3.6-1.3 1.3 0 .7.6 1.3 1.3 1.3m0-5.4h15.3c.7 0 1.3-.6 1.3-1.3 0-.7-.6-1.3-1.3-1.3H7.5c-.7 0-1.3.6-1.3 1.3 0 .7.6 1.3 1.3 1.3m10-5.3h11.6c.7 0 1.3-.6 1.3-1.3 0-.7-.6-1.3-1.3-1.3H17.5c-.7 0-1.3.6-1.3 1.3-.1.6.5 1.3 1.3 1.3m0-5.4h11.6c.7 0 1.3-.6 1.3-1.3 0-.7-.6-1.3-1.3-1.3H17.5c-.7 0-1.3.6-1.3 1.3-.1.7.5 1.3 1.3 1.3"></path>
  </symbol>
  <symbol xmlns="http://www.w3.org/2000/svg" viewBox="0 0 50 50" id="02">
    <path d="M43.4 28.5l-9.7-8.6c-.5-.5-1.3-.4-1.8.1s-.4 1.3.1 1.8l8.6 7.7-8.6 7.6c-.5.5-.6 1.3-.1 1.8.3.3.6.4 1 .4.3 0 .6-.1.9-.3l9.7-8.6c.3-.2.4-.6.4-1-.1-.3-.3-.7-.5-.9m-25.3-8.6c-.5-.5-1.3-.6-1.8-.1l-9.7 8.6c-.3.2-.4.6-.4 1s.2.7.4 1l9.7 8.6c.2.2.5.3.9.3s.7-.1 1-.4c.5-.5.4-1.3-.1-1.8l-8.6-7.7 8.6-7.7c.5-.4.5-1.2 0-1.8m10-.7c-.7-.2-1.4.2-1.6.9l-5.4 17.8c-.2.7.2 1.4.9 1.6.1 0 .2.1.4.1.6 0 1.1-.4 1.2-.9L29 20.9c.1-.8-.3-1.5-.9-1.7"></path>
    <path d="M48.7 0H1.3C.6 0 0 .6 0 1.3v47.4c0 .7.6 1.3 1.3 1.3h47.4c.7 0 1.3-.6 1.3-1.3V1.3c0-.7-.6-1.3-1.3-1.3m-1.3 7.7h-5.1V2.6h5.1v5.1zM10.3 2.6h29.5v5.1H10.3V2.6zm-7.7 0h5.1v5.1H2.6V2.6zm0 7.7h44.9v37.2H2.6V10.3z"></path>
  </symbol>
  <symbol xmlns="http://www.w3.org/2000/svg" xmlns:xlink="http://www.w3.org/1999/xlink" viewBox="0 0 40 40" id="app">
    <defs>
      <path id="a" d="M0 0h40v40H0z"></path>
    </defs>
    <clipPath id="b">
      <use xlink:href="#a" overflow="visible"></use>
    </clipPath>
    <path d="M20.3 0C9.5 0 .7 8.8.7 19.7c0 3.4.9 6.8 2.6 9.8L0 39.1c-.1.2 0 .5.1.7.2.1.4.2.6.2h.2l10.6-2.8c2.8 1.4 5.8 2.1 8.9 2.1 10.8 0 19.7-8.8 19.7-19.7C40 8.8 31.2 0 20.3 0" clip-path="url(#b)" fill="#97ba33"></path>
    <defs>
      <path id="c" d="M0 0h40v40H0z"></path>
    </defs>
    <clipPath id="d">
      <use xlink:href="#c" overflow="visible"></use>
    </clipPath>
    <path d="M24.9 7.8h-9.1c-1.4 0-2.5 1.1-2.5 2.5v18c0 1.4 1.1 2.5 2.5 2.5h9.1c1.4 0 2.5-1.1 2.5-2.5v-18c0-1.4-1.1-2.5-2.5-2.5m-4.5 22.1c-.8 0-1.4-.6-1.4-1.4 0-.8.6-1.4 1.4-1.4.8 0 1.4.6 1.4 1.4 0 .8-.6 1.4-1.4 1.4m4.7-4.7c0 .4-.4.8-.8.8h-7.9c-.4 0-.8-.3-.8-.8v-15c0-.4.4-.8.8-.8h7.9c.4 0 .8.3.8.8v15z"
      clip-path="url(#d)" fill="#fff"></path>
  </symbol>
  <symbol xmlns="http://www.w3.org/2000/svg" viewBox="0 0 40 40" id="chatbots">
    <path d="M40 20c0 11-9 20-20 20S0 31 0 20 9 0 20 0s20 9 20 20" fill="#6aacce"></path>
    <path d="M30.3 17.3h-.8v-1.1c0-1.7-1.4-3.1-3.2-3.1h-5.2v-2.6c.7-.4 1.1-1.1 1.1-2 0-1.3-1-2.3-2.3-2.3-1.3 0-2.3 1-2.3 2.3 0 .8.5 1.6 1.1 2V13h-5.2c-1.7 0-3.1 1.4-3.1 3.1v1.1h-.7c-1 0-1.8.8-1.8 1.8v3.8c0 1 .8 1.8 1.8 1.8h.8v1.1c0 1.7 1.4 3.1 3.1 3.1h1.5v1.7c0 1 .8 1.8 1.8 1.8H23c1 0 1.8-.8 1.8-1.8v-1.7h1.5c1.7 0 3.2-1.4 3.2-3.1v-1.1h.8c1 0 1.8-.8 1.8-1.8V19c-.1-.9-.9-1.7-1.8-1.7m-17.2 1.2c0-1.2.9-2.1 2.1-2.1 1.2 0 2.1.9 2.1 2.1 0 1.2-.9 2.1-2.1 2.1-1.2 0-2.1-1-2.1-2.1m9.7 7.6h-5.7c-.9 0-1.7-.8-1.7-1.7 0-.9.8-1.7 1.7-1.7h5.7c.9 0 1.7.8 1.7 1.7.1.9-.7 1.7-1.7 1.7m2-5.5c-1.2 0-2.1-.9-2.1-2.1 0-1.2.9-2.1 2.1-2.1 1.2 0 2.1.9 2.1 2.1 0 1.1-.9 2.1-2.1 2.1"
      fill="#fff"></path>
  </symbol>
  <symbol xmlns="http://www.w3.org/2000/svg" xmlns:xlink="http://www.w3.org/1999/xlink" viewBox="0 0 40 40" id="email">
    <defs>
      <path id="a" d="M0 0h40v40H0z"></path>
    </defs>
    <clipPath id="b">
      <use xlink:href="#a" overflow="visible"></use>
    </clipPath>
    <path d="M20 0c11 0 20 9 20 20s-9 20-20 20S0 31 0 20 9 0 20 0" clip-path="url(#b)" fill="#7296cd"></path>
    <path d="M6.9 12.2v15.6l7.6-7.8zm26.2 0v15.6L25.6 20zm-25.6-.7h25l-9.8 10.2c-.7.8-1.7 1.2-2.7 1.2-1 0-2-.4-2.7-1.1L7.5 11.5z"></path>
    <path d="M23.2 22.3c-.8.9-2 1.4-3.2 1.4-1.2 0-2.4-.5-3.2-1.4l-1.7-1.7-7.6 7.9h25l-7.6-7.9-1.7 1.7z"></path>
  </symbol>
  <symbol xmlns="http://www.w3.org/2000/svg" viewBox="0 0 512 512" id="facebook">
    <title>facebook</title>
    <path d="M304 96h80V0h-80c-61.757 0-112 50.243-112 112v48h-64v96h64v256h96V256h80l16-96h-96v-48c0-8.673 7.327-16 16-16z"></path>
  </symbol>
  <symbol xmlns="http://www.w3.org/2000/svg" viewBox="0 0 40 40" id="feedback">
    <path d="M20 0C9 0 0 9 0 20s9 20 20 20 20-9 20-20S31 0 20 0zm-7.5 13.7H24l-.1-.1c-.6-.6-.6-1.5 0-2.1.6-.6 1.5-.6 2 0l2.7 2.7v.1c.1.1.2.3.3.4.1.2.1.4.1.6v.4c-.1.2-.2.4-.4.6L25.9 19c-.3.3-.6.4-1 .4s-.7-.2-1-.4c-.6-.6-.5-1.5 0-2.1l.1-.2H12.5c-.8 0-1.4-.7-1.4-1.5-.1-.9.6-1.5 1.4-1.5zm15.1 12.6H16l.1.2c.6.6.6 1.5 0 2.1-.3.3-.7.4-1 .4-.4 0-.7-.1-1-.4l-2.7-2.7h-.1c-.2-.2-.3-.4-.4-.6 0-.1-.1-.2-.1-.4s.1-.3.1-.5c.1-.2.2-.4.4-.5l2.7-2.7c.6-.6 1.5-.6 2 0 .6.6.5 1.5 0 2.1v.1h11.5c.8 0 1.4.7 1.4 1.5.1.7-.5 1.4-1.3 1.4z"
      fill="#dab81a"></path>
  </symbol>
</svg>